<svg width="45" height="45" viewBox="0 0 45 45" fill="none" xmlns="http://www.w3.org/2000/svg">
<path d="M4.02868 40.0355L4.02874 40.0354L4.01873 40.0297C1.66001 38.6819 0.804457 35.4557 2.15514 33.0859L18.0752 6.48995C18.6514 5.7222 19.1348 5.1007 19.7422 4.79698L19.7557 4.79026L19.7687 4.7828C20.9541 4.10544 22.3099 3.9327 23.6811 4.27549C25.0136 4.60862 26.0366 5.43906 26.9213 6.6718L42.6596 33.0897L42.6605 33.0912C43.1632 33.929 43.3333 34.7659 43.3333 35.625C43.3333 37.0024 42.8156 38.334 41.8407 39.1464L41.8029 39.1779L41.7714 39.2157C40.9467 40.2054 39.7929 40.7083 38.4375 40.7083H6.56249C5.7034 40.7083 4.86652 40.5382 4.02868 40.0355ZM40.422 34.4453L40.413 34.4274L40.4028 34.4103L24.6528 7.97277L24.652 7.97131C23.9155 6.74392 22.472 6.5528 21.3613 6.99707L21.3404 7.00544L21.3202 7.01552C21.1001 7.1256 20.9055 7.25036 20.7342 7.42167C20.5677 7.58816 20.4452 7.77665 20.3373 7.98922L4.59802 34.4088C4.59785 34.4091 4.59769 34.4094 4.59752 34.4096C3.86831 35.626 4.36731 37.0455 5.48595 37.7476C5.69022 37.9214 5.93557 37.9837 6.09844 38.0109C6.28377 38.0417 6.46167 38.0417 6.5547 38.0417H6.56249H38.25C38.5944 38.0417 38.9057 37.9836 39.1965 37.8544C39.485 37.7261 39.726 37.54 39.9455 37.3205C40.165 37.101 40.3511 36.86 40.4793 36.5716C40.6086 36.2807 40.6667 35.9695 40.6667 35.625L40.6667 35.6039C40.6667 35.4333 40.6668 35.2527 40.6358 35.0672C40.6014 34.8606 40.5333 34.668 40.422 34.4453ZM21.7937 30.738C21.7983 30.7346 21.8023 30.7317 21.8059 30.7292H21.8779L21.9922 30.672C22.2292 30.5535 22.4704 30.5423 22.8381 30.5417C22.8468 30.5504 22.8563 30.5599 22.867 30.5705L23.0256 30.7292H23.2131C23.2218 30.7379 23.2313 30.7474 23.242 30.758L23.2708 30.7292H23.271C23.2421 30.7581 23.2421 30.7582 23.2422 30.7582L23.2424 30.7584L23.2428 30.7588L23.2436 30.7597L23.2456 30.7616L23.2505 30.7664L23.2638 30.779C23.2743 30.7888 23.2881 30.8013 23.3047 30.8156C23.3375 30.8436 23.3843 30.8811 23.4417 30.9194C23.5017 30.9594 23.6023 31.0202 23.7306 31.0611C23.7703 31.1027 23.8007 31.137 23.8245 31.1688C23.8289 31.1746 23.8325 31.1797 23.8354 31.1839C23.8423 31.2837 23.8647 31.3751 23.8817 31.4374C23.9033 31.5166 23.9308 31.5991 23.9528 31.6649L23.9549 31.6713C23.9795 31.7451 23.9977 31.8004 24.0106 31.8476C24.0168 31.8703 24.0196 31.8837 24.0208 31.8897C24.0192 32.1001 23.9838 32.2535 23.9269 32.3816C23.8723 32.5043 23.7875 32.6275 23.6531 32.7676C23.1484 33.1004 22.888 33.2083 22.5 33.2083C22.2819 33.2083 22.1245 33.1726 21.9934 33.1144C21.86 33.0551 21.726 32.96 21.5705 32.8045C21.415 32.649 21.3199 32.515 21.2606 32.3816C21.2024 32.2505 21.1667 32.093 21.1667 31.875C21.1667 31.7781 21.1676 31.6797 21.1827 31.5891C21.19 31.5456 21.1986 31.5167 21.2054 31.5C21.206 31.4987 21.2065 31.4975 21.207 31.4964C21.3559 31.3437 21.4331 31.189 21.4795 31.096L21.4845 31.086C21.5312 30.9924 21.5451 30.9709 21.5705 30.9455C21.6713 30.8447 21.7368 30.7807 21.7937 30.738ZM23.276 30.7242C23.2759 30.7242 23.2759 30.7242 23.2758 30.7242L23.625 30.375C23.4127 30.5873 23.3181 30.682 23.276 30.7242ZM21.2097 31.4909C21.2096 31.4909 21.2096 31.491 21.2095 31.4912L21.2097 31.4909ZM22.5 25.7083C22.0606 25.7083 21.7365 25.5642 21.5236 25.3514C21.3108 25.1385 21.1667 24.8144 21.1667 24.375V16.875C21.1667 16.4356 21.3108 16.1115 21.5236 15.8986C21.7365 15.6858 22.0606 15.5417 22.5 15.5417C22.9394 15.5417 23.2635 15.6858 23.4763 15.8986C23.6892 16.1115 23.8333 16.4356 23.8333 16.875V24.375C23.8333 24.8144 23.6892 25.1385 23.4763 25.3514C23.2635 25.5642 22.9394 25.7083 22.5 25.7083Z" fill="#CA3725" stroke="#FAE5E3" stroke-width="1.08333"/>
</svg>
