<svg width="45" height="45" viewBox="0 0 45 45" fill="none" xmlns="http://www.w3.org/2000/svg">
<g clip-path="url(#clip0_1_49)">
<path d="M23.5532 21.6636L23.5606 21.6666L23.5679 21.6694C23.7442 21.7378 23.9055 21.8399 24.0428 21.9699L28.536 26.4631L28.5383 26.4653C28.6747 26.6007 28.783 26.7617 28.857 26.9391C28.9309 27.1165 28.9689 27.3068 28.9689 27.499C28.9689 27.6912 28.9309 27.8815 28.857 28.0589C28.783 28.2363 28.6747 28.3974 28.5383 28.5327L28.5383 28.5327L28.5337 28.5373C28.3983 28.6738 28.2373 28.7821 28.0599 28.856C27.8825 28.9299 27.6922 28.9679 27.5 28.9679C27.3078 28.9679 27.1175 28.9299 26.9401 28.856C26.7641 28.7826 26.6042 28.6755 26.4695 28.5405L25.821 27.8696L24.4559 26.4574V28.4215V34.249C24.4559 34.6351 24.3025 35.0055 24.0295 35.2785C23.7564 35.5515 23.3861 35.7049 23 35.7049C22.6139 35.7049 22.2436 35.5515 21.9705 35.2785C21.6975 35.0055 21.5441 34.6351 21.5441 34.249V28.4215V26.4574L20.179 27.8696L19.5317 28.5393C19.2574 28.8113 18.8866 28.9641 18.5 28.9641C18.1114 28.9641 17.7388 28.8098 17.464 28.535C17.1893 28.2602 17.0349 27.8876 17.0349 27.499C17.0349 27.1105 17.1893 26.7378 17.464 26.463L21.9572 21.9699C22.0945 21.8399 22.2558 21.7378 22.4321 21.6694L22.4394 21.6666L22.4468 21.6636C22.8012 21.518 23.1988 21.518 23.5532 21.6636ZM40.0709 15.5065V15.6365L40.1123 15.7597C40.1564 15.8906 40.1877 16.0255 40.2059 16.1624V16.249V38.749C40.2059 40.3286 39.5784 41.8435 38.4614 42.9605C37.3445 44.0774 35.8296 44.7049 34.25 44.7049H11.75C10.1704 44.7049 8.6555 44.0774 7.53856 42.9605C6.42161 41.8435 5.79412 40.3286 5.79412 38.749V7.24902C5.79412 5.66943 6.42161 4.15452 7.53856 3.03758C8.6555 1.92063 10.1704 1.29314 11.75 1.29314H25.3016C25.443 1.32654 25.5797 1.37817 25.708 1.4468L25.8835 1.54064H26.0825H26.1123C26.2102 1.59883 26.3017 1.6673 26.3854 1.74495L39.8666 15.2262C39.9442 15.3098 40.0127 15.4014 40.0709 15.4992V15.5065ZM28.0615 7.61L26.7059 6.25435V8.17152V11.749C26.7059 12.5564 27.0266 13.3307 27.5975 13.9015C28.1684 14.4724 28.9426 14.7931 29.75 14.7931H33.3275H35.2447L33.889 13.4375L28.0615 7.61ZM9.59748 40.9015L10.159 40.34L9.59749 40.9015C10.1684 41.4724 10.9426 41.7931 11.75 41.7931H34.25C35.0574 41.7931 35.8316 41.4724 36.4025 40.9015C36.9734 40.3307 37.2941 39.5564 37.2941 38.749V18.499V17.7049H36.5H29.75C28.1704 17.7049 26.6555 17.0774 25.5386 15.9605C24.4216 14.8435 23.7941 13.3286 23.7941 11.749V4.99902V4.20491H23H11.75C10.9426 4.20491 10.1684 4.52562 9.59748 5.09651C9.0266 5.66739 8.70588 6.44167 8.70588 7.24902V38.749C8.70588 39.5564 9.0266 40.3307 9.59748 40.9015Z" fill="#577BEC" stroke="#EFF3FE" stroke-width="1.58824"/>
</g>
<defs>
<clipPath id="clip0_1_49">
<rect width="45" height="45" fill="white"/>
</clipPath>
</defs>
</svg>
