<svg width="45" height="45" viewBox="0 0 45 45" fill="none" xmlns="http://www.w3.org/2000/svg">
<g clip-path="url(#clip0_1_175)">
<path fill-rule="evenodd" clip-rule="evenodd" d="M29.3681 7.07518C26.0442 5.59412 22.3306 5.22721 18.7811 6.02917C15.2316 6.83113 12.0364 8.759 9.6721 11.5252C7.30779 14.2915 5.90101 17.7479 5.66158 21.379C5.42215 25.01 6.36289 28.6212 8.3435 31.674C10.3241 34.7267 13.2385 37.0574 16.6519 38.3185C20.0654 39.5796 23.795 39.7035 27.2847 38.6718C30.7743 37.64 33.8369 35.5078 36.0158 32.5933C38.1946 29.6787 39.3729 26.1379 39.375 22.4989V20.775C39.375 19.7395 40.2145 18.9 41.25 18.9C42.2855 18.9 43.125 19.7395 43.125 20.775V22.5C43.1225 26.9476 41.6823 31.2763 39.0192 34.8386C36.3562 38.4008 32.613 41.0068 28.3479 42.2679C24.0828 43.5289 19.5243 43.3775 15.3523 41.8362C11.1803 40.2948 7.61835 37.4462 5.19761 33.715C2.77686 29.9839 1.62707 25.5702 1.91971 21.1322C2.21235 16.6942 3.93174 12.4697 6.82145 9.08878C9.71116 5.70782 13.6164 3.35155 17.9546 2.37137C22.2929 1.3912 26.8318 1.83964 30.8944 3.64982C31.8403 4.07128 32.2654 5.17974 31.8439 6.12562C31.4225 7.07151 30.314 7.49664 29.3681 7.07518Z" fill="#5AB98F" stroke="#E7F5EF" stroke-width="1.80392" stroke-linecap="round" stroke-linejoin="round"/>
<path fill-rule="evenodd" clip-rule="evenodd" d="M42.5752 6.17352C43.3078 6.90538 43.3084 8.09257 42.5765 8.82517L23.8265 27.5939C23.4749 27.9458 22.9979 28.1436 22.5005 28.1438C22.003 28.1439 21.5259 27.9463 21.1742 27.5946L15.5492 21.9696C14.8169 21.2373 14.8169 20.0502 15.5492 19.3179C16.2814 18.5857 17.4686 18.5857 18.2008 19.3179L22.4993 23.6164L39.9235 6.17484C40.6554 5.44224 41.8426 5.44165 42.5752 6.17352Z" fill="#5AB98F" stroke="#E7F5EF" stroke-width="1.80392" stroke-linecap="round" stroke-linejoin="round"/>
</g>
<defs>
<clipPath id="clip0_1_175">
<rect width="45" height="45" fill="white"/>
</clipPath>
</defs>
</svg>
